# xmcd
#
# Track frame offsets:
#	150
#	20802
#	41197
#	58937
#	75392
#	93735
#	111422
#	129455
#	147657
#	172157
#
# Disc length: 2455 seconds
#
# Revision: 1
# Processed by: cddbd v1.5.1PL0 Copyright (c) Steve Scherf et al.
# Submitted via: CDex 1.50Beta5
#
DISCID=9a09950a
DTITLE=大西結花 - テイク・ア・チャンス
DYEAR=1987
DGENRE=Pop
TTITLE0=パンドーラ
TTITLE1=真夏のLove Chase
TTITLE2=5W1Hの疑問符
TTITLE3=WAGAMAMAナインティーン
TTITLE4=GOOD LUCK
TTITLE5=ルパンのように
TTITLE6=ミステリアス・スマイル
TTITLE7=やさしい彼?
TTITLE8=逢える時まで〜I’ll See You Again〜
TTITLE9=チャンスは一度だけ
EXTD=
EXTT0=
EXTT1=
EXTT2=
EXTT3=
EXTT4=
EXTT5=
EXTT6=
EXTT7=
EXTT8=
EXTT9=
PLAYORDER=
